<mxfile>
    <diagram id="SrauRF6aSJEwyrtESGfg" name="Pipelines">
        <mxGraphModel dx="1061" dy="547" grid="1" gridSize="10" guides="0" tooltips="1" connect="1" arrows="1" fold="1" page="1" pageScale="1" pageWidth="150" pageHeight="400" background="none" math="0" shadow="0">
            <root>
                <mxCell id="0"/>
                <mxCell id="1" parent="0"/>
                <mxCell id="115" value="" style="rounded=0;whiteSpace=wrap;html=1;shadow=0;glass=0;labelBackgroundColor=none;strokeColor=#FFFFFF;fontColor=#FFFFFF;fillColor=#4c566a;horizontal=1;" parent="1" vertex="1">
                    <mxGeometry width="1350" height="800" as="geometry"/>
                </mxCell>
                <mxCell id="114" value="" style="rounded=0;whiteSpace=wrap;html=1;shadow=0;glass=0;labelBackgroundColor=none;strokeColor=#FFFFFF;fontColor=#FFFFFF;fillColor=#2e3440;" parent="1" vertex="1">
                    <mxGeometry x="280" width="1070" height="520" as="geometry"/>
                </mxCell>
                <mxCell id="4" value="NetSuite" style="html=1;shadow=0;align=center;verticalAlign=middle;shape=mxgraph.gcp2.cloud_monitoring;labelBackgroundColor=#ffffff;fontColor=#333333;labelBorderColor=none;strokeColor=#eceff4;fillColor=#FFFFFF;" parent="1" vertex="1">
                    <mxGeometry x="640" y="60" width="160" height="80" as="geometry"/>
                </mxCell>
                <mxCell id="7" value="" style="shadow=1;strokeWidth=1;rounded=1;absoluteArcSize=1;arcSize=2;labelBackgroundColor=none;fontColor=#333333;fillColor=#eceff4;strokeColor=#eceff4;glass=1;html=1;" parent="1" vertex="1">
                    <mxGeometry x="80" y="200" width="160" height="40" as="geometry"/>
                </mxCell>
                <mxCell id="8" value="Cron Job" style="dashed=0;connectable=0;html=1;fillColor=#757575;shape=mxgraph.gcp2.scheduled_tasks;part=1;labelPosition=right;verticalLabelPosition=middle;align=left;verticalAlign=middle;spacingLeft=5;fontSize=12;strokeColor=#eceff4;" parent="7" vertex="1">
                    <mxGeometry y="0.5" width="32" height="32" relative="1" as="geometry">
                        <mxPoint x="5" y="-16" as="offset"/>
                    </mxGeometry>
                </mxCell>
                <mxCell id="39" value="" style="shadow=1;strokeWidth=1;rounded=1;absoluteArcSize=1;arcSize=2;labelBackgroundColor=none;fontColor=#333333;strokeColor=#eceff4;glass=1;html=1;" parent="1" vertex="1">
                    <mxGeometry x="80" y="440" width="160" height="40" as="geometry"/>
                </mxCell>
                <mxCell id="40" value="&lt;font color=&quot;#000000&quot;&gt;vuanem_ns&lt;/font&gt;&lt;br&gt;Cloud Pub/Sub" style="dashed=0;connectable=0;html=1;fillColor=#5184F3;shape=mxgraph.gcp2.hexIcon;prIcon=cloud_pubsub;part=1;labelPosition=right;verticalLabelPosition=middle;align=left;verticalAlign=middle;spacingLeft=5;fontColor=#999999;fontSize=12;strokeColor=#eceff4;" parent="39" vertex="1">
                    <mxGeometry y="0.5" width="44" height="39" relative="1" as="geometry">
                        <mxPoint x="5" y="-19.5" as="offset"/>
                    </mxGeometry>
                </mxCell>
                <mxCell id="42" value="" style="edgeStyle=orthogonalEdgeStyle;fontSize=12;endArrow=blockThin;endFill=1;rounded=1;strokeWidth=2;endSize=4;startSize=4;dashed=0;exitX=0.5;exitY=1;exitDx=0;exitDy=0;entryX=0.5;entryY=0;entryDx=0;entryDy=0;strokeColor=#eceff4;jumpStyle=none;shadow=0;" parent="1" source="7" edge="1">
                    <mxGeometry width="100" relative="1" as="geometry">
                        <mxPoint x="140" y="280" as="sourcePoint"/>
                        <mxPoint x="160" y="320" as="targetPoint"/>
                    </mxGeometry>
                </mxCell>
                <mxCell id="116" value="Call" style="edgeLabel;align=center;verticalAlign=middle;resizable=0;points=[];fontColor=#2e3440;html=1;labelBorderColor=none;fontSize=12;" parent="42" vertex="1" connectable="0">
                    <mxGeometry x="0.2672" y="1" relative="1" as="geometry">
                        <mxPoint as="offset"/>
                    </mxGeometry>
                </mxCell>
                <mxCell id="43" value="Publish Messages Per Tables" style="edgeStyle=orthogonalEdgeStyle;fontSize=12;endArrow=blockThin;endFill=1;rounded=1;strokeWidth=2;endSize=4;startSize=4;dashed=0;exitX=0.5;exitY=1;exitDx=0;exitDy=0;entryX=0.5;entryY=0;entryDx=0;entryDy=0;strokeColor=#eceff4;jumpStyle=none;shadow=0;" parent="1" target="39" edge="1">
                    <mxGeometry width="100" relative="1" as="geometry">
                        <mxPoint x="160" y="360" as="sourcePoint"/>
                        <mxPoint x="170" y="330" as="targetPoint"/>
                    </mxGeometry>
                </mxCell>
                <mxCell id="46" value="" style="shadow=1;strokeWidth=1;rounded=1;absoluteArcSize=1;arcSize=2;labelBackgroundColor=none;fontColor=#333333;strokeColor=#eceff4;glass=1;html=1;" parent="1" vertex="1">
                    <mxGeometry x="320" y="440" width="160" height="40" as="geometry"/>
                </mxCell>
                <mxCell id="47" value="&lt;font color=&quot;#000000&quot;&gt;vuanem-ns&lt;/font&gt;&lt;br&gt;IncrementalJob" style="dashed=0;connectable=0;html=1;fillColor=#5184F3;shape=mxgraph.gcp2.hexIcon;prIcon=cloud_run;part=1;labelPosition=right;verticalLabelPosition=middle;align=left;verticalAlign=middle;spacingLeft=5;fontColor=#999999;fontSize=12;strokeColor=#eceff4;" parent="46" vertex="1">
                    <mxGeometry y="0.5" width="44" height="39" relative="1" as="geometry">
                        <mxPoint x="5" y="-19.5" as="offset"/>
                    </mxGeometry>
                </mxCell>
                <mxCell id="48" value="" style="shadow=1;strokeWidth=1;rounded=1;absoluteArcSize=1;arcSize=2;labelBackgroundColor=none;fontColor=#333333;strokeColor=#eceff4;glass=1;html=1;" parent="1" vertex="1">
                    <mxGeometry x="320" y="320" width="160" height="40" as="geometry"/>
                </mxCell>
                <mxCell id="49" value="&lt;font color=&quot;#000000&quot;&gt;vuanem-ns&lt;/font&gt;&lt;br&gt;StandardJob" style="dashed=0;connectable=0;html=1;fillColor=#5184F3;shape=mxgraph.gcp2.hexIcon;prIcon=cloud_run;part=1;labelPosition=right;verticalLabelPosition=middle;align=left;verticalAlign=middle;spacingLeft=5;fontColor=#999999;fontSize=12;strokeColor=#eceff4;" parent="48" vertex="1">
                    <mxGeometry y="0.5" width="44" height="39" relative="1" as="geometry">
                        <mxPoint x="5" y="-19.5" as="offset"/>
                    </mxGeometry>
                </mxCell>
                <mxCell id="53" value="Invoke" style="edgeStyle=orthogonalEdgeStyle;fontSize=12;endArrow=blockThin;endFill=1;rounded=1;strokeWidth=2;endSize=4;startSize=4;dashed=0;exitX=1;exitY=0.5;exitDx=0;exitDy=0;entryX=0;entryY=0.5;entryDx=0;entryDy=0;strokeColor=#eceff4;" parent="1" source="39" target="48" edge="1">
                    <mxGeometry width="100" relative="1" as="geometry">
                        <mxPoint x="120" y="620" as="sourcePoint"/>
                        <mxPoint x="240" y="720" as="targetPoint"/>
                    </mxGeometry>
                </mxCell>
                <mxCell id="66" value="Transform" style="rounded=0;whiteSpace=wrap;labelBackgroundColor=none;fontColor=#333333;strokeColor=#eceff4;html=1;" parent="1" vertex="1">
                    <mxGeometry x="880" y="80" width="160" height="40" as="geometry"/>
                </mxCell>
                <mxCell id="67" value="Data ETL" style="ellipse;whiteSpace=wrap;labelBackgroundColor=none;fontColor=#333333;strokeColor=#eceff4;html=1;" parent="1" vertex="1">
                    <mxGeometry x="80" y="80" width="160" height="40" as="geometry"/>
                </mxCell>
                <mxCell id="70" value="" style="shadow=1;strokeWidth=1;rounded=1;absoluteArcSize=1;arcSize=2;labelBackgroundColor=none;fontColor=#333333;strokeColor=#eceff4;glass=1;html=1;" parent="1" vertex="1">
                    <mxGeometry x="640" y="320" width="160" height="40" as="geometry"/>
                </mxCell>
                <mxCell id="71" value="&lt;font color=&quot;#000000&quot;&gt;Stage Table&lt;/font&gt;&lt;br&gt;BigQuery" style="dashed=0;connectable=0;html=1;fillColor=#5184F3;shape=mxgraph.gcp2.hexIcon;prIcon=bigquery;part=1;labelPosition=right;verticalLabelPosition=middle;align=left;verticalAlign=middle;spacingLeft=5;fontColor=#999999;fontSize=12;strokeColor=#eceff4;" parent="70" vertex="1">
                    <mxGeometry y="0.5" width="44" height="39" relative="1" as="geometry">
                        <mxPoint x="5" y="-19.5" as="offset"/>
                    </mxGeometry>
                </mxCell>
                <mxCell id="73" value="" style="shadow=1;strokeWidth=1;rounded=1;absoluteArcSize=1;arcSize=2;labelBackgroundColor=none;fontColor=#333333;strokeColor=#eceff4;glass=1;html=1;" parent="1" vertex="1">
                    <mxGeometry x="640" y="440" width="160" height="40" as="geometry"/>
                </mxCell>
                <mxCell id="74" value="&lt;font color=&quot;#000000&quot;&gt;Stage Table&lt;/font&gt;&lt;br&gt;BigQuery" style="dashed=0;connectable=0;html=1;fillColor=#5184F3;shape=mxgraph.gcp2.hexIcon;prIcon=bigquery;part=1;labelPosition=right;verticalLabelPosition=middle;align=left;verticalAlign=middle;spacingLeft=5;fontColor=#999999;fontSize=12;strokeColor=#eceff4;" parent="73" vertex="1">
                    <mxGeometry y="0.5" width="44" height="39" relative="1" as="geometry">
                        <mxPoint x="5" y="-19.5" as="offset"/>
                    </mxGeometry>
                </mxCell>
                <mxCell id="77" value="" style="edgeStyle=orthogonalEdgeStyle;fontSize=12;html=1;endArrow=blockThin;endFill=1;rounded=1;strokeWidth=2;endSize=4;startSize=4;dashed=0;exitX=0.5;exitY=1;exitDx=0;exitDy=0;entryX=0;entryY=0.5;entryDx=0;entryDy=0;strokeColor=#eceff4;" parent="1" source="66" target="70" edge="1">
                    <mxGeometry width="100" relative="1" as="geometry">
                        <mxPoint x="250" y="470" as="sourcePoint"/>
                        <mxPoint x="330" y="350" as="targetPoint"/>
                    </mxGeometry>
                </mxCell>
                <mxCell id="78" value="Load" style="edgeStyle=orthogonalEdgeStyle;fontSize=12;endArrow=blockThin;endFill=1;rounded=1;strokeWidth=2;endSize=4;startSize=4;dashed=0;exitX=0.5;exitY=1;exitDx=0;exitDy=0;entryX=0;entryY=0.5;entryDx=0;entryDy=0;strokeColor=#eceff4;jumpStyle=none;shadow=0;" parent="1" source="66" target="73" edge="1">
                    <mxGeometry width="100" relative="1" as="geometry">
                        <mxPoint x="730" y="250" as="sourcePoint"/>
                        <mxPoint x="890" y="350" as="targetPoint"/>
                        <Array as="points">
                            <mxPoint x="960" y="220"/>
                            <mxPoint x="630" y="220"/>
                            <mxPoint x="630" y="460"/>
                        </Array>
                    </mxGeometry>
                </mxCell>
                <mxCell id="79" value="" style="shadow=1;strokeWidth=1;rounded=1;absoluteArcSize=1;arcSize=2;labelBackgroundColor=none;fontColor=#333333;strokeColor=#eceff4;glass=1;html=1;" parent="1" vertex="1">
                    <mxGeometry x="880" y="320" width="160" height="40" as="geometry"/>
                </mxCell>
                <mxCell id="80" value="&lt;font color=&quot;#000000&quot;&gt;Regular Table&lt;/font&gt;&lt;br&gt;BigQuery" style="dashed=0;connectable=0;html=1;fillColor=#5184F3;shape=mxgraph.gcp2.hexIcon;prIcon=bigquery;part=1;labelPosition=right;verticalLabelPosition=middle;align=left;verticalAlign=middle;spacingLeft=5;fontColor=#999999;fontSize=12;strokeColor=#eceff4;" parent="79" vertex="1">
                    <mxGeometry y="0.5" width="44" height="39" relative="1" as="geometry">
                        <mxPoint x="5" y="-19.5" as="offset"/>
                    </mxGeometry>
                </mxCell>
                <mxCell id="81" value="" style="shadow=1;strokeWidth=1;rounded=1;absoluteArcSize=1;arcSize=2;labelBackgroundColor=none;fontColor=#333333;strokeColor=#eceff4;glass=1;html=1;" parent="1" vertex="1">
                    <mxGeometry x="880" y="440" width="160" height="40" as="geometry"/>
                </mxCell>
                <mxCell id="82" value="&lt;font color=&quot;#000000&quot;&gt;Regular Table&lt;/font&gt;&lt;br&gt;BigQuery" style="dashed=0;connectable=0;html=1;fillColor=#5184F3;shape=mxgraph.gcp2.hexIcon;prIcon=bigquery;part=1;labelPosition=right;verticalLabelPosition=middle;align=left;verticalAlign=middle;spacingLeft=5;fontColor=#999999;fontSize=12;strokeColor=#eceff4;" parent="81" vertex="1">
                    <mxGeometry y="0.5" width="44" height="39" relative="1" as="geometry">
                        <mxPoint x="5" y="-19.5" as="offset"/>
                    </mxGeometry>
                </mxCell>
                <mxCell id="83" value="" style="shadow=1;strokeWidth=1;rounded=1;absoluteArcSize=1;arcSize=2;labelBackgroundColor=none;fontColor=#333333;strokeColor=#eceff4;glass=1;html=1;" parent="1" vertex="1">
                    <mxGeometry x="880" y="560" width="160" height="40" as="geometry"/>
                </mxCell>
                <mxCell id="84" value="&lt;font color=&quot;#000000&quot;&gt;Calculation View&lt;/font&gt;&lt;br&gt;BigQuery" style="dashed=0;connectable=0;html=1;fillColor=#5184F3;shape=mxgraph.gcp2.hexIcon;prIcon=bigquery;part=1;labelPosition=right;verticalLabelPosition=middle;align=left;verticalAlign=middle;spacingLeft=5;fontColor=#999999;fontSize=12;strokeColor=#eceff4;" parent="83" vertex="1">
                    <mxGeometry y="0.5" width="44" height="39" relative="1" as="geometry">
                        <mxPoint x="5" y="-19.5" as="offset"/>
                    </mxGeometry>
                </mxCell>
                <mxCell id="85" value="" style="shadow=1;strokeWidth=1;rounded=1;absoluteArcSize=1;arcSize=2;labelBackgroundColor=none;fontColor=#333333;strokeColor=#eceff4;glass=1;html=1;" parent="1" vertex="1">
                    <mxGeometry x="880" y="680" width="160" height="40" as="geometry"/>
                </mxCell>
                <mxCell id="86" value="&lt;font color=&quot;#000000&quot;&gt;Calculation View&lt;/font&gt;&lt;br&gt;BigQuery" style="dashed=0;connectable=0;html=1;fillColor=#5184F3;shape=mxgraph.gcp2.hexIcon;prIcon=bigquery;part=1;labelPosition=right;verticalLabelPosition=middle;align=left;verticalAlign=middle;spacingLeft=5;fontColor=#999999;fontSize=12;strokeColor=#eceff4;" parent="85" vertex="1">
                    <mxGeometry y="0.5" width="44" height="39" relative="1" as="geometry">
                        <mxPoint x="5" y="-19.5" as="offset"/>
                    </mxGeometry>
                </mxCell>
                <mxCell id="87" value="" style="shadow=1;strokeWidth=1;rounded=1;absoluteArcSize=1;arcSize=2;labelBackgroundColor=none;fontColor=#333333;strokeColor=#eceff4;glass=1;html=1;" parent="1" vertex="1">
                    <mxGeometry x="640" y="560" width="160" height="40" as="geometry"/>
                </mxCell>
                <mxCell id="88" value="&lt;font color=&quot;#000000&quot;&gt;Analytics View&lt;/font&gt;&lt;br&gt;BigQuery" style="dashed=0;connectable=0;html=1;fillColor=#5184F3;shape=mxgraph.gcp2.hexIcon;prIcon=bigquery;part=1;labelPosition=right;verticalLabelPosition=middle;align=left;verticalAlign=middle;spacingLeft=5;fontColor=#999999;fontSize=12;strokeColor=#eceff4;" parent="87" vertex="1">
                    <mxGeometry y="0.5" width="44" height="39" relative="1" as="geometry">
                        <mxPoint x="5" y="-19.5" as="offset"/>
                    </mxGeometry>
                </mxCell>
                <mxCell id="89" value="" style="shadow=0;strokeWidth=1;rounded=1;absoluteArcSize=1;arcSize=2;labelBackgroundColor=none;fontColor=#333333;strokeColor=#eceff4;glass=1;html=1;" parent="1" vertex="1">
                    <mxGeometry x="640" y="680" width="160" height="40" as="geometry"/>
                </mxCell>
                <mxCell id="90" value="&lt;font color=&quot;#000000&quot;&gt;Analytics View&lt;/font&gt;&lt;br&gt;BigQuery" style="dashed=0;connectable=0;html=1;fillColor=#5184F3;shape=mxgraph.gcp2.hexIcon;prIcon=bigquery;part=1;labelPosition=right;verticalLabelPosition=middle;align=left;verticalAlign=middle;spacingLeft=5;fontColor=#999999;fontSize=12;strokeColor=#eceff4;" parent="89" vertex="1">
                    <mxGeometry y="0.5" width="44" height="39" relative="1" as="geometry">
                        <mxPoint x="5" y="-19.5" as="offset"/>
                    </mxGeometry>
                </mxCell>
                <mxCell id="96" value="" style="dashed=0;outlineConnect=0;html=1;align=center;labelPosition=center;verticalLabelPosition=bottom;verticalAlign=top;shape=mxgraph.weblogos.messenger_3;fillColor=#437BBD;labelBackgroundColor=#ffffff;fontColor=#333333;strokeColor=#eceff4;" parent="1" vertex="1">
                    <mxGeometry x="1200" y="360" width="80" height="80" as="geometry"/>
                </mxCell>
                <mxCell id="97" value="Update" style="edgeStyle=orthogonalEdgeStyle;fontSize=12;endArrow=blockThin;endFill=1;rounded=1;strokeWidth=2;endSize=4;startSize=4;dashed=0;exitX=1;exitY=0.5;exitDx=0;exitDy=0;entryX=0;entryY=0.5;entryDx=0;entryDy=0;strokeColor=#eceff4;jumpStyle=none;shadow=0;" parent="1" source="70" target="79" edge="1">
                    <mxGeometry width="100" relative="1" as="geometry">
                        <mxPoint x="1110" y="370" as="sourcePoint"/>
                        <mxPoint x="860" y="350" as="targetPoint"/>
                    </mxGeometry>
                </mxCell>
                <mxCell id="98" value="Update" style="edgeStyle=orthogonalEdgeStyle;fontSize=12;endArrow=blockThin;endFill=1;rounded=1;strokeWidth=2;endSize=4;startSize=4;dashed=0;exitX=1;exitY=0.5;exitDx=0;exitDy=0;strokeColor=#eceff4;jumpStyle=none;shadow=0;" parent="1" source="73" target="81" edge="1">
                    <mxGeometry width="100" relative="1" as="geometry">
                        <mxPoint x="810" y="350" as="sourcePoint"/>
                        <mxPoint x="880" y="460" as="targetPoint"/>
                    </mxGeometry>
                </mxCell>
                <mxCell id="99" value="SQL" style="edgeStyle=orthogonalEdgeStyle;fontSize=12;endArrow=blockThin;endFill=1;rounded=1;strokeWidth=2;endSize=4;startSize=4;dashed=0;exitX=0;exitY=0.5;exitDx=0;exitDy=0;entryX=1;entryY=0.5;entryDx=0;entryDy=0;strokeColor=#eceff4;" parent="1" source="83" target="87" edge="1">
                    <mxGeometry width="100" relative="1" as="geometry">
                        <mxPoint x="820" y="360" as="sourcePoint"/>
                        <mxPoint x="900" y="360" as="targetPoint"/>
                    </mxGeometry>
                </mxCell>
                <mxCell id="100" value="SQL" style="edgeStyle=orthogonalEdgeStyle;fontSize=12;endArrow=blockThin;endFill=1;rounded=1;strokeWidth=2;endSize=4;startSize=4;dashed=0;exitX=0;exitY=0.5;exitDx=0;exitDy=0;entryX=1;entryY=0.5;entryDx=0;entryDy=0;strokeColor=#eceff4;" parent="1" source="85" target="89" edge="1">
                    <mxGeometry width="100" relative="1" as="geometry">
                        <mxPoint x="890" y="590" as="sourcePoint"/>
                        <mxPoint x="810" y="590" as="targetPoint"/>
                    </mxGeometry>
                </mxCell>
                <mxCell id="101" value="" style="edgeStyle=orthogonalEdgeStyle;fontSize=12;html=1;endArrow=blockThin;endFill=1;rounded=1;strokeWidth=2;endSize=4;startSize=4;dashed=0;exitX=1;exitY=0.5;exitDx=0;exitDy=0;strokeColor=#eceff4;" parent="1" source="79" target="96" edge="1">
                    <mxGeometry width="100" relative="1" as="geometry">
                        <mxPoint x="810" y="350" as="sourcePoint"/>
                        <mxPoint x="1040" y="420" as="targetPoint"/>
                    </mxGeometry>
                </mxCell>
                <mxCell id="102" value="" style="edgeStyle=orthogonalEdgeStyle;fontSize=12;endArrow=blockThin;endFill=1;rounded=1;strokeWidth=2;endSize=4;startSize=4;dashed=0;exitX=1;exitY=0.5;exitDx=0;exitDy=0;strokeColor=#eceff4;" parent="1" source="81" target="96" edge="1">
                    <mxGeometry width="100" relative="1" as="geometry">
                        <mxPoint x="1050" y="350" as="sourcePoint"/>
                        <mxPoint x="1210" y="410" as="targetPoint"/>
                    </mxGeometry>
                </mxCell>
                <mxCell id="117" value="Notify" style="edgeLabel;html=1;align=center;verticalAlign=middle;resizable=0;points=[];fontSize=12;fontColor=#2e3440;" parent="102" vertex="1" connectable="0">
                    <mxGeometry x="0.5597" y="-2" relative="1" as="geometry">
                        <mxPoint as="offset"/>
                    </mxGeometry>
                </mxCell>
                <mxCell id="103" value="" style="edgeStyle=orthogonalEdgeStyle;fontSize=12;html=1;endArrow=blockThin;endFill=1;rounded=1;strokeWidth=2;endSize=4;startSize=4;dashed=0;exitX=1;exitY=0.5;exitDx=0;exitDy=0;entryX=1;entryY=0.5;entryDx=0;entryDy=0;strokeColor=#eceff4;" parent="1" source="79" target="83" edge="1">
                    <mxGeometry width="100" relative="1" as="geometry">
                        <mxPoint x="1050" y="350" as="sourcePoint"/>
                        <mxPoint x="1210" y="410" as="targetPoint"/>
                        <Array as="points">
                            <mxPoint x="1120" y="340"/>
                            <mxPoint x="1120" y="580"/>
                        </Array>
                    </mxGeometry>
                </mxCell>
                <mxCell id="104" value="" style="edgeStyle=orthogonalEdgeStyle;fontSize=12;html=1;endArrow=blockThin;endFill=1;rounded=1;strokeWidth=2;endSize=4;startSize=4;dashed=0;entryX=1;entryY=0.5;entryDx=0;entryDy=0;strokeColor=#eceff4;" parent="1" target="85" edge="1">
                    <mxGeometry width="100" relative="1" as="geometry">
                        <mxPoint x="1040" y="340" as="sourcePoint"/>
                        <mxPoint x="1050" y="590" as="targetPoint"/>
                        <Array as="points">
                            <mxPoint x="1120" y="340"/>
                            <mxPoint x="1120" y="700"/>
                        </Array>
                    </mxGeometry>
                </mxCell>
                <mxCell id="106" value="Extract" style="edgeStyle=orthogonalEdgeStyle;fontSize=12;endArrow=blockThin;endFill=1;rounded=1;strokeWidth=2;endSize=4;startSize=4;dashed=0;entryX=0;entryY=0.5;entryDx=0;entryDy=0;strokeColor=#eceff4;jumpStyle=none;shadow=0;" parent="1" target="66" edge="1">
                    <mxGeometry width="100" relative="1" as="geometry">
                        <mxPoint x="801" y="100" as="sourcePoint"/>
                        <mxPoint x="1070" y="610" as="targetPoint"/>
                        <Array as="points">
                            <mxPoint x="801" y="100"/>
                        </Array>
                    </mxGeometry>
                </mxCell>
                <mxCell id="107" value="" style="edgeStyle=orthogonalEdgeStyle;fontSize=12;html=1;endArrow=blockThin;endFill=1;rounded=1;strokeWidth=2;endSize=4;startSize=4;dashed=0;exitX=0.5;exitY=1;exitDx=0;exitDy=0;entryX=0.5;entryY=0;entryDx=0;entryDy=0;strokeColor=#eceff4;jumpStyle=none;shadow=0;" parent="1" source="67" target="7" edge="1">
                    <mxGeometry width="100" relative="1" as="geometry">
                        <mxPoint x="160" y="120" as="sourcePoint"/>
                        <mxPoint x="160" y="200" as="targetPoint"/>
                    </mxGeometry>
                </mxCell>
                <mxCell id="108" value="Data Studio" style="rounded=1;whiteSpace=wrap;labelBackgroundColor=none;fontColor=#333333;strokeColor=#eceff4;glass=1;html=1;" parent="1" vertex="1">
                    <mxGeometry x="320" y="560" width="160" height="40" as="geometry"/>
                </mxCell>
                <mxCell id="109" value="Power BI" style="rounded=1;whiteSpace=wrap;labelBackgroundColor=none;fontColor=#333333;strokeColor=#FFFFFF;glass=1;html=1;" parent="1" vertex="1">
                    <mxGeometry x="320" y="680" width="160" height="40" as="geometry"/>
                </mxCell>
                <mxCell id="110" value="" style="edgeStyle=orthogonalEdgeStyle;fontSize=12;html=1;endArrow=blockThin;endFill=1;rounded=0;strokeWidth=2;endSize=4;startSize=4;dashed=0;entryX=1;entryY=0.5;entryDx=0;entryDy=0;strokeColor=#eceff4;exitX=0;exitY=0.5;exitDx=0;exitDy=0;" parent="1" source="87" target="108" edge="1">
                    <mxGeometry width="100" relative="1" as="geometry">
                        <mxPoint x="620" y="580" as="sourcePoint"/>
                        <mxPoint x="810" y="590" as="targetPoint"/>
                    </mxGeometry>
                </mxCell>
                <mxCell id="111" value="" style="edgeStyle=orthogonalEdgeStyle;fontSize=12;html=1;endArrow=blockThin;endFill=1;rounded=0;strokeWidth=2;endSize=4;startSize=4;dashed=0;entryX=1;entryY=0.5;entryDx=0;entryDy=0;strokeColor=#eceff4;exitX=0;exitY=0.5;exitDx=0;exitDy=0;" parent="1" source="89" target="109" edge="1">
                    <mxGeometry width="100" relative="1" as="geometry">
                        <mxPoint x="650" y="590" as="sourcePoint"/>
                        <mxPoint x="490" y="590" as="targetPoint"/>
                    </mxGeometry>
                </mxCell>
                <mxCell id="52" value="Invoke" style="edgeStyle=orthogonalEdgeStyle;fontSize=12;endArrow=blockThin;endFill=1;rounded=1;strokeWidth=2;endSize=4;startSize=4;dashed=0;exitX=1;exitY=0.5;exitDx=0;exitDy=0;entryX=0;entryY=0.5;entryDx=0;entryDy=0;strokeColor=#eceff4;jumpStyle=none;shadow=0;" parent="1" source="39" target="46" edge="1">
                    <mxGeometry width="100" relative="1" as="geometry">
                        <mxPoint x="190" y="600" as="sourcePoint"/>
                        <mxPoint x="190" y="680" as="targetPoint"/>
                    </mxGeometry>
                </mxCell>
                <mxCell id="57" value="Get" style="edgeStyle=orthogonalEdgeStyle;fontSize=12;endArrow=blockThin;endFill=1;rounded=1;strokeWidth=2;endSize=4;startSize=4;dashed=0;exitX=1;exitY=0.5;exitDx=0;exitDy=0;entryX=0;entryY=0.5;entryDx=0;entryDy=0;entryPerimeter=0;strokeColor=#eceff4;jumpStyle=none;shadow=0;" parent="1" source="46" target="4" edge="1">
                    <mxGeometry width="100" relative="1" as="geometry">
                        <mxPoint x="550" y="290" as="sourcePoint"/>
                        <mxPoint x="550" y="370" as="targetPoint"/>
                    </mxGeometry>
                </mxCell>
                <mxCell id="62" value="" style="edgeStyle=orthogonalEdgeStyle;fontSize=12;endArrow=blockThin;endFill=1;rounded=1;strokeWidth=2;endSize=4;startSize=4;dashed=1;dashPattern=1 3;entryX=0.003;entryY=0.498;entryDx=0;entryDy=0;entryPerimeter=0;strokeColor=#eceff4;jumpStyle=none;shadow=0;" parent="1" target="4" edge="1">
                    <mxGeometry width="100" relative="1" as="geometry">
                        <mxPoint x="480" y="340" as="sourcePoint"/>
                        <mxPoint x="930" y="490" as="targetPoint"/>
                        <Array as="points">
                            <mxPoint x="560" y="340"/>
                            <mxPoint x="560" y="100"/>
                        </Array>
                    </mxGeometry>
                </mxCell>
                <mxCell id="118" value="" style="shadow=1;strokeWidth=1;rounded=1;absoluteArcSize=1;arcSize=2;labelBackgroundColor=none;fontColor=#333333;strokeColor=#eceff4;glass=1;html=1;" vertex="1" parent="1">
                    <mxGeometry x="80" y="320" width="160" height="40" as="geometry"/>
                </mxCell>
                <mxCell id="119" value="&lt;font color=&quot;#000000&quot;&gt;vuanem-ns&lt;/font&gt;&lt;br&gt;broadcast" style="dashed=0;connectable=0;html=1;fillColor=#5184F3;shape=mxgraph.gcp2.hexIcon;prIcon=cloud_run;part=1;labelPosition=right;verticalLabelPosition=middle;align=left;verticalAlign=middle;spacingLeft=5;fontColor=#999999;fontSize=12;strokeColor=#eceff4;" vertex="1" parent="118">
                    <mxGeometry y="0.5" width="44" height="39" relative="1" as="geometry">
                        <mxPoint x="5" y="-19.5" as="offset"/>
                    </mxGeometry>
                </mxCell>
            </root>
        </mxGraphModel>
    </diagram>
</mxfile>
